<svg width="24" height="24" viewBox="0 0 24 24" fill="none" xmlns="http://www.w3.org/2000/svg">
<path fill-rule="evenodd" clip-rule="evenodd" d="M10 4H4C3.46957 4 2.96086 4.21071 2.58579 4.58579C2.21071 4.96086 2 5.46957 2 6V18C2 18.5304 2.21071 19.0391 2.58579 19.4142C2.96086 19.7893 3.46957 20 4 20H10V4ZM4.379 9.293C4.19153 9.48053 4.08621 9.73484 4.08621 10C4.08621 10.2652 4.19153 10.5195 4.379 10.707L5.672 12L4.379 13.293C4.28349 13.3852 4.20731 13.4956 4.1549 13.6176C4.10249 13.7396 4.0749 13.8708 4.07375 14.0036C4.0726 14.1364 4.0979 14.2681 4.14818 14.391C4.19846 14.5139 4.27271 14.6255 4.3666 14.7194C4.4605 14.8133 4.57215 14.8875 4.69505 14.9378C4.81794 14.9881 4.94962 15.0134 5.0824 15.0123C5.21518 15.0111 5.3464 14.9835 5.4684 14.9311C5.59041 14.8787 5.70075 14.8025 5.793 14.707L7.793 12.707C7.98047 12.5195 8.08579 12.2652 8.08579 12C8.08579 11.7348 7.98047 11.4805 7.793 11.293L5.793 9.293C5.60547 9.10553 5.35116 9.00021 5.086 9.00021C4.82084 9.00021 4.56653 9.10553 4.379 9.293Z" fill="white"/>
<path d="M12 20H20C20.5304 20 21.0391 19.7893 21.4142 19.4142C21.7893 19.0391 22 18.5304 22 18V6C22 5.46957 21.7893 4.96086 21.4142 4.58579C21.0391 4.21071 20.5304 4 20 4H12V20Z" fill="white"/>
</svg>
